<svg width="165" height="164" xmlns="http://www.w3.org/2000/svg" xmlns:xlink="http://www.w3.org/1999/xlink" xml:space="preserve" overflow="hidden"><g transform="translate(-510 -265)"><path d="M160.144 109.574C159.648 108.21 158.598 107.118 157.254 106.569 154.748 105.629 151.936 106.712 150.707 109.089L149.597 111.183C149.31 111.707 148.819 112.088 148.241 112.236 147.654 112.387 147.032 112.289 146.52 111.966 145.706 111.375 145.357 110.332 145.651 109.369L145.898 108.423 154.917 83.845C158.209 74.0204 157.57 65.7503 152.764 56.17L143.312 38.1642C141.446 34.4127 137.611 32.0463 133.421 32.0603L124.315 32.0603 120.537 29.3082C119.937 28.8553 119.278 28.4858 118.579 28.2097 113.633 26.3492 108.057 27.5291 104.289 31.2335 103.337 32.1696 102.449 32.9965 101.916 33.4867L99.6385 33.3757C98.4897 33.3279 97.3468 33.1839 96.2219 32.9452L85.6302 29.918C83.7968 29.3938 81.8996 29.1276 79.9927 29.1271L47.2235 29.1271C40.595 29.1548 34.0553 30.6537 28.0765 33.5158L27.7587 33.6678C27.4905 33.7994 27.2223 33.9326 26.9592 34.0693 25.8281 34.6421 24.7332 35.2839 23.6809 35.9912 23.3393 36.2201 23.0061 36.461 22.673 36.6984 22.5449 36.7907 22.4133 36.8778 22.2869 36.9718 20.0241 38.5923 18.0362 40.5661 16.4 42.8177 16.3812 42.845 16.3795 42.8758 16.3641 42.9014 12.2745 48.2649 10.0544 54.8202 10.0433 61.5649L10.0433 94.862C10.1976 97.9587 8.66166 100.896 6.03042 102.536 5.1933 102.971 4.86747 104.002 5.30265 104.84 5.73785 105.677 6.76925 106.003 7.60637 105.567 7.635 105.552 7.66319 105.537 7.69092 105.52 11.2567 103.449 13.4535 99.6385 13.46 95.5146L13.46 61.5649C13.5241 50.8038 19.8064 41.0509 29.5781 36.543 35.0931 33.9251 41.1187 32.5595 47.2235 32.5438L79.9808 32.5438C81.5698 32.5438 83.1511 32.7658 84.6787 33.2032L95.2703 36.2303C96.6799 36.5711 98.1221 36.7589 99.5719 36.7907L100.226 36.8231 94.8757 48.995C93.9021 51.1045 93.7279 53.4958 94.3854 55.7241 95.2095 58.3664 97.1891 60.4914 99.7667 61.5L116.423 68.101C119.157 69.1807 122.242 68.8873 124.724 67.3118L127.197 65.7384C127.965 65.1897 128.142 64.1226 127.594 63.3551 127.083 62.6413 126.115 62.4302 125.354 62.8667L122.882 64.4417C121.326 65.4314 119.39 65.6149 117.675 64.9355L101.179 58.3994C100.007 57.9627 99.0022 57.1661 98.3095 56.1239 97.2518 54.4974 97.0873 52.4469 97.8721 50.6726L104.393 35.8545C104.957 35.342 105.789 34.5562 106.685 33.6747 109.499 30.9032 113.665 30.0168 117.362 31.4026 117.776 31.5729 118.166 31.7976 118.521 32.0705L122.749 35.1455C123.041 35.3577 123.392 35.4718 123.753 35.4718L133.421 35.4718C136.327 35.4648 138.984 37.1123 140.27 39.7188L149.723 57.7212C153.989 65.3665 154.711 74.4915 151.7 82.7124L142.646 107.391 142.352 108.483C141.663 110.898 142.62 113.481 144.716 114.865 146.021 115.691 147.61 115.939 149.103 115.548 150.596 115.156 151.861 114.168 152.604 112.815L153.728 110.695C154.131 109.865 155.083 109.458 155.962 109.738 156.414 109.919 156.768 110.284 156.934 110.741 157.101 111.194 157.065 111.697 156.837 112.123L155.607 114.44C154.018 117.334 150.982 119.136 147.68 119.144 146.529 119.144 145.388 118.921 144.322 118.487 140.62 116.961 138.359 113.187 138.758 109.203L140.314 86.0078C140.479 81.4035 136.889 77.5331 132.285 77.3533L128.911 77.2987C126.596 77.5395 124.281 76.8396 122.487 75.3563L120.608 73.648C120.475 73.5262 120.322 73.4264 120.157 73.3524 119.024 72.8418 117.725 72.8498 116.599 73.3746 115.439 73.9204 114.583 74.9531 114.26 76.1934L114.12 76.8477C113.364 80.3848 111.237 83.4777 108.204 85.4491L102.304 89.2843C100.394 90.2547 98.5008 91.1635 96.666 92.0091 96.0399 92.2917 95.6527 92.9309 95.6923 93.6167L95.6923 126.459 95.7692 126.972 97.375 132.1C97.3779 132.109 97.3728 132.119 97.3639 132.122 97.3625 132.122 97.361 132.122 97.3596 132.122L85.5311 132.122C85.5217 132.122 85.5146 132.114 85.5151 132.105 85.5151 132.103 85.5154 132.102 85.5157 132.1L87.084 126.953 87.1592 126.456 87.1592 98.4957C87.1573 98.2481 87.1074 98.0033 87.0122 97.7748 86.7177 96.8794 85.7539 96.3917 84.858 96.6848 70.807 101.287 57.5794 101.967 40.6276 98.9586 39.1825 98.701 37.7559 98.3489 36.3568 97.9046L35.9177 97.8465C34.9742 97.8465 34.2094 98.6113 34.2094 99.5548L34.2094 126.459 34.2863 126.963 35.875 132.1C35.8779 132.109 35.8728 132.119 35.8639 132.122 35.8625 132.122 35.861 132.122 35.8596 132.122L24.0311 132.122C24.0217 132.123 24.0137 132.116 24.0132 132.106 24.0132 132.104 24.0134 132.102 24.014 132.1L25.584 126.955 25.6592 126.454 25.6592 92.7625C25.6592 92.7403 25.6592 92.7249 25.6592 92.7027 25.6592 92.6805 25.6592 92.66 25.6592 92.6378 25.6513 92.5353 25.6265 92.4348 25.5857 92.3405 25.5148 92.0192 25.3494 91.7266 25.1108 91.5 23.9238 90.425 22.8322 89.2491 21.8479 87.986 20.7371 86.5585 19.7295 85.0536 18.8327 83.4828 18.3642 82.6634 17.3203 82.3789 16.5008 82.8473 15.6814 83.3158 15.3968 84.3597 15.8653 85.1792 16.8374 86.891 17.9295 88.5316 19.1333 90.089 20.0833 91.2945 21.1208 92.4285 22.2374 93.4817L22.2374 126.201 20.734 131.127C20.184 132.932 21.2013 134.841 23.0063 135.391 23.3292 135.489 23.6647 135.539 24.0021 135.539L35.875 135.539C37.762 135.539 39.2917 134.009 39.2915 132.122 39.2915 131.779 39.2397 131.437 39.1379 131.109L37.6107 126.198 37.6107 101.817C38.4067 102.013 39.2131 102.186 40.0228 102.329 46.4875 103.531 53.0456 104.16 59.6208 104.208 67.7962 104.217 75.9269 103.001 83.7425 100.602L83.7425 126.203 82.2409 131.127C81.6908 132.932 82.7081 134.841 84.5131 135.391 84.836 135.489 85.1715 135.539 85.5089 135.539L97.375 135.539C99.262 135.539 100.792 134.009 100.791 132.122 100.791 131.779 100.74 131.437 100.638 131.109L99.1107 126.198 99.1107 94.6417C100.691 93.902 102.304 93.123 103.935 92.2927L104.09 92.2039 107.652 89.8874 107.652 126.459 107.729 126.963 109.333 132.1C109.336 132.109 109.331 132.119 109.322 132.122 109.321 132.122 109.319 132.122 109.318 132.122L104.301 132.122C103.357 132.122 102.592 132.887 102.592 133.831 102.592 134.774 103.357 135.539 104.301 135.539L109.333 135.539C111.22 135.539 112.75 134.009 112.75 132.122 112.75 131.779 112.698 131.437 112.596 131.109L111.069 126.198 111.069 87.5863C114.341 85.1256 116.612 81.5634 117.462 77.5583L117.574 77.0151C117.641 76.7735 117.811 76.5737 118.039 76.4684 118.203 76.395 118.385 76.3717 118.562 76.4018L120.18 77.8812C122.591 79.9382 125.72 80.9555 128.88 80.7102L128.88 80.7102 132.181 80.7632C134.87 80.878 136.968 83.1313 136.89 85.8215L135.351 108.917C134.83 114.391 137.952 119.562 143.039 121.65 144.512 122.249 146.088 122.557 147.679 122.556 152.234 122.546 156.423 120.059 158.612 116.064L159.852 113.724C160.532 112.444 160.638 110.936 160.144 109.574Z" transform="matrix(-1.0061 0 0 1 675 265)"/><path d="M49.5758 126.198 49.5758 107.669C49.5758 106.726 48.811 105.961 47.8675 105.961 46.924 105.961 46.1592 106.726 46.1592 107.669L46.1592 126.461 46.236 126.965 47.8333 132.1C47.8362 132.109 47.8311 132.119 47.8222 132.122 47.8209 132.122 47.8193 132.122 47.818 132.122L42.7989 132.122C41.8554 132.122 41.0905 132.887 41.0905 133.831 41.0905 134.774 41.8554 135.539 42.7989 135.539L47.8333 135.539C49.7204 135.539 51.25 134.009 51.2498 132.122 51.2498 131.779 51.1981 131.437 51.0963 131.109Z" transform="matrix(-1.0061 0 0 1 675 265)"/><path d="M140.09 56.375C140.09 58.262 138.56 59.7917 136.673 59.7917 134.787 59.7917 133.257 58.262 133.257 56.375 133.257 54.488 134.787 52.9583 136.673 52.9583 138.56 52.9583 140.09 54.488 140.09 56.375Z" transform="matrix(-1.0061 0 0 1 675 265)"/></g></svg>