<svg width="205" height="205" xmlns="http://www.w3.org/2000/svg" xmlns:xlink="http://www.w3.org/1999/xlink" xml:space="preserve" overflow="hidden"><g transform="translate(-201 -44)"><path d="M292.846 182.802 287.508 182.802C291.613 176.224 289.609 167.563 283.03 163.457 282.02 162.827 280.933 162.327 279.797 161.971 278.668 161.628 277.475 162.265 277.132 163.393 276.789 164.522 277.426 165.715 278.554 166.058 282.604 167.331 285.363 171.082 285.37 175.328 285.399 178.451 283.899 181.391 281.354 183.201 280.395 183.888 280.174 185.222 280.861 186.181 281.261 186.74 281.906 187.072 282.594 187.073L292.844 187.073C295.203 187.073 297.115 188.985 297.115 191.344 297.115 193.703 295.203 195.615 292.844 195.615L270.422 195.615C256.873 195.549 243.907 190.087 234.396 180.436 225.177 171.238 220.069 158.704 220.232 145.682 220.774 118.916 242.581 97.4751 269.353 97.3854 270.532 97.3854 271.488 96.4294 271.488 95.25 271.488 94.0706 270.532 93.1146 269.353 93.1146 240.257 93.2243 216.563 116.526 215.967 145.616 215.779 159.785 221.329 173.427 231.353 183.443 241.673 193.904 255.736 199.821 270.431 199.885L292.853 199.885C297.57 199.885 301.394 196.061 301.394 191.344 301.394 186.626 297.57 182.802 292.853 182.802Z"/><path d="M344.073 186.859C346.443 186.805 348.435 188.629 348.589 190.996 348.722 193.294 346.967 195.265 344.668 195.398 344.552 195.404 344.435 195.406 344.318 195.403L307.782 195.403C306.602 195.403 305.646 196.359 305.646 197.539 305.646 198.718 306.602 199.674 307.782 199.674L344.314 199.674C348.973 199.736 352.801 196.009 352.863 191.35 352.865 191.193 352.862 191.037 352.856 190.88 352.67 186.928 349.831 183.604 345.956 182.802L386.995 160.543C389.398 159.183 390.997 156.746 391.285 154 391.293 153.922 391.298 153.843 391.298 153.765 391.121 148.554 387.387 144.148 382.276 143.12L344.359 136.378 332.898 127.429C331.74 126.646 330.275 126.47 328.965 126.957 327.615 127.454 326.592 128.579 326.225 129.97L324.457 137.042C313.418 129.578 300.465 125.448 287.143 125.146 263.736 124.448 243.794 141.539 241.812 164.01 241.269 169.658 241.879 175.357 243.604 180.763 243.91 181.902 245.081 182.577 246.22 182.271 247.359 181.964 248.034 180.793 247.728 179.654 247.712 179.596 247.694 179.538 247.674 179.482 246.122 174.621 245.572 169.496 246.057 164.416 247.851 144.168 265.917 128.793 286.991 129.417 301.106 129.995 314.237 134.439 323.336 141.599L322.505 145.159C322.238 146.306 322.95 147.452 324.096 147.721 324.257 147.761 324.422 147.78 324.587 147.779 325.577 147.779 326.437 147.098 326.665 146.135L330.391 130.911C330.395 130.9 330.406 130.894 330.418 130.897 330.421 130.898 330.423 130.899 330.425 130.901L342.145 140.062C342.419 140.28 342.743 140.427 343.089 140.489L381.464 147.311C384.52 147.948 386.786 150.532 387.016 153.645 386.854 154.964 386.084 156.132 384.934 156.799L337.368 182.589 327 182.589C325.821 182.589 324.865 183.545 324.865 184.724 324.865 185.903 325.821 186.859 327 186.859Z"/><path d="M354.759 149.703C354.759 151.472 353.324 152.906 351.555 152.906 349.786 152.906 348.352 151.472 348.352 149.703 348.352 147.934 349.786 146.5 351.555 146.5 353.324 146.5 354.759 147.934 354.759 149.703Z"/></g></svg>