<svg width="205" height="205" xmlns="http://www.w3.org/2000/svg" xmlns:xlink="http://www.w3.org/1999/xlink" xml:space="preserve" overflow="hidden"><g transform="translate(-526 -44)"><path d="M91.8464 138.802 86.5079 138.802C90.6134 132.224 88.6087 123.563 82.0303 119.457 81.0199 118.827 79.9333 118.327 78.7969 117.971 77.6683 117.628 76.475 118.265 76.1319 119.393 75.7887 120.522 76.4255 121.715 77.5541 122.058 81.6043 123.331 84.3626 127.082 84.3703 131.328 84.3989 134.451 82.899 137.391 80.3536 139.201 79.3948 139.888 79.1742 141.222 79.861 142.181 80.2613 142.74 80.9065 143.072 81.5943 143.073L91.8443 143.073C94.2031 143.073 96.1151 144.985 96.1151 147.344 96.1151 149.703 94.2031 151.615 91.8443 151.615L69.4224 151.615C55.8725 151.549 42.9074 146.087 33.3958 136.436 24.1774 127.238 19.0691 114.704 19.2316 101.682 19.7742 74.9158 41.5808 53.4751 68.3526 53.3854 69.5319 53.3854 70.488 52.4294 70.488 51.25 70.488 50.0706 69.5319 49.1146 68.3526 49.1146 39.2571 49.2243 15.5627 72.5264 14.9671 101.616 14.7795 115.785 20.3285 129.427 30.3528 139.443 40.6726 149.904 54.7361 155.821 69.4309 155.885L91.8528 155.885C96.5702 155.885 100.394 152.061 100.394 147.344 100.394 142.626 96.5702 138.802 91.8528 138.802Z" transform="matrix(-1 0 0 1 731 44)"/><path d="M143.073 142.859C145.443 142.805 147.435 144.629 147.589 146.996 147.722 149.294 145.967 151.265 143.668 151.398 143.552 151.404 143.435 151.406 143.318 151.403L106.782 151.403C105.602 151.403 104.646 152.359 104.646 153.539 104.646 154.718 105.602 155.674 106.782 155.674L143.314 155.674C147.973 155.736 151.801 152.009 151.863 147.35 151.865 147.193 151.863 147.037 151.856 146.88 151.67 142.928 148.831 139.604 144.956 138.802L185.995 116.543C188.398 115.183 189.997 112.746 190.285 110 190.293 109.922 190.298 109.843 190.298 109.765 190.121 104.554 186.387 100.148 181.276 99.1196L143.359 92.3781 131.898 83.4286C130.74 82.6455 129.275 82.4698 127.965 82.9567 126.615 83.4542 125.592 84.5787 125.225 85.9697L123.457 93.0422C112.418 85.5777 99.4647 81.4478 86.1427 81.1458 62.7364 80.4476 42.7938 97.5394 40.8121 120.01 40.2695 125.658 40.8791 131.357 42.6037 136.763 42.9099 137.902 44.0814 138.577 45.2202 138.271 46.3593 137.964 47.0343 136.793 46.728 135.654 46.7125 135.596 46.6943 135.538 46.6738 135.482 45.1222 130.621 44.5721 125.496 45.0573 120.416 46.851 100.168 64.9167 84.7931 85.9911 85.4167 100.106 85.9954 113.237 90.4392 122.336 97.5992L121.505 101.159C121.239 102.306 121.95 103.452 123.096 103.721 123.257 103.761 123.422 103.78 123.587 103.779 124.577 103.779 125.437 103.098 125.665 102.135L129.391 86.9115C129.395 86.9001 129.406 86.8935 129.418 86.8967 129.421 86.8976 129.423 86.8989 129.425 86.9008L141.145 96.0617C141.419 96.28 141.743 96.4267 142.089 96.4888L180.464 103.311C183.52 103.948 185.786 106.532 186.016 109.645 185.854 110.964 185.084 112.132 183.934 112.799L136.368 138.589 126 138.589C124.821 138.589 123.865 139.545 123.865 140.724 123.865 141.903 124.821 142.859 126 142.859Z" transform="matrix(-1 0 0 1 731 44)"/><path d="M153.759 105.703C153.759 107.472 152.324 108.906 150.555 108.906 148.786 108.906 147.352 107.472 147.352 105.703 147.352 103.934 148.786 102.5 150.555 102.5 152.324 102.5 153.759 103.934 153.759 105.703Z" transform="matrix(-1 0 0 1 731 44)"/></g></svg>